<?xml version="1.0" encoding="UTF-8"?>
<svg id="Layer_1" data-name="Layer 1" xmlns="http://www.w3.org/2000/svg" version="1.1" viewBox="0 0 230 91">
  <defs>
    <style>
      .cls-1 {
        fill: #000;
        stroke-width: 0px;
      }

      .cls-2 {
        fill: none;
        stroke: #000;
        stroke-miterlimit: 10;
      }
    </style>
  </defs>
  <g>
    <path class="cls-1" d="M34.4,33.3v26.7h-6.5v-16l-6,16h-5.2l-6-16v16h-6.5v-26.7h7.7l7.5,18.5,7.4-18.5h7.6Z"/>
    <path class="cls-1" d="M45.6,38.5v5.4h8.7v5h-8.7v5.9h9.8v5.2h-16.3v-26.7h16.3v5.2h-9.8Z"/>
    <path class="cls-1" d="M83.5,60h-6.5l-10.9-16.5v16.5h-6.5v-26.7h6.5l10.9,16.5v-16.5h6.5v26.7Z"/>
    <path class="cls-1" d="M104.8,55.2h-10l-1.6,4.7h-6.8l9.7-26.7h7.5l9.7,26.7h-6.9l-1.6-4.7ZM103.1,50.2l-3.3-9.8-3.3,9.8h6.6Z"/>
  </g>
  <g>
    <path class="cls-1" d="M141.2,11.8v1.8h-4.6v15h-2.2v-15h-4.6v-1.8h11.3Z"/>
    <path class="cls-1" d="M153.1,15.8c.8.4,1.4,1.1,1.9,1.9.5.8.7,1.9.7,3.1v7.8h-2.2v-7.4c0-1.3-.3-2.3-1-3-.7-.7-1.6-1-2.7-1s-2.1.4-2.7,1.1-1,1.8-1,3.1v7.3h-2.2V10.8h2.2v6.5c.4-.7,1-1.2,1.8-1.6.8-.4,1.6-.6,2.6-.6s1.9.2,2.7.6Z"/>
    <path class="cls-1" d="M171.2,22.8h-10.5c0,1.3.5,2.3,1.3,3,.8.7,1.8,1.1,2.9,1.1s1.7-.2,2.4-.7c.6-.4,1.1-1,1.3-1.8h2.4c-.4,1.3-1.1,2.3-2.1,3.1-1.1.8-2.4,1.2-3.9,1.2s-2.4-.3-3.3-.8c-1-.6-1.8-1.4-2.3-2.4-.6-1-.8-2.2-.8-3.6s.3-2.6.8-3.6,1.3-1.8,2.3-2.4c1-.6,2.1-.8,3.4-.8s2.4.3,3.3.8,1.7,1.3,2.2,2.2c.5,1,.8,2,.8,3.2s0,.9,0,1.3ZM168.4,18.8c-.4-.6-.9-1.1-1.5-1.4-.6-.3-1.3-.5-2.1-.5-1.1,0-2,.4-2.8,1.1-.8.7-1.2,1.7-1.3,2.9h8.3c0-.8-.2-1.5-.6-2.1Z"/>
    <path class="cls-1" d="M174.1,18.4c.5-1,1.3-1.8,2.2-2.4s2-.8,3.2-.8,2.2.2,3,.7c.8.5,1.5,1.1,1.9,1.9v-2.4h2.2v13.2h-2.2v-2.4c-.4.8-1.1,1.4-1.9,1.9-.9.5-1.9.8-3,.8s-2.2-.3-3.2-.9c-.9-.6-1.7-1.4-2.2-2.4s-.8-2.2-.8-3.6.3-2.5.8-3.5ZM183.9,19.3c-.4-.7-.9-1.3-1.6-1.7-.7-.4-1.4-.6-2.2-.6s-1.6.2-2.2.6-1.2.9-1.6,1.7c-.4.7-.6,1.6-.6,2.6s.2,1.9.6,2.6c.4.7.9,1.3,1.6,1.7s1.4.6,2.2.6,1.6-.2,2.2-.6c.7-.4,1.2-1,1.6-1.7.4-.7.6-1.6.6-2.6s-.2-1.9-.6-2.6Z"/>
    <path class="cls-1" d="M193,17.2v7.8c0,.6.1,1.1.4,1.4.3.3.7.4,1.4.4h1.6v1.8h-2c-1.2,0-2.1-.3-2.7-.8-.6-.6-.9-1.5-.9-2.8v-7.8h-1.7v-1.8h1.7v-3.3h2.2v3.3h3.4v1.8h-3.4Z"/>
    <path class="cls-1" d="M211,22.8h-10.5c0,1.3.5,2.3,1.3,3,.8.7,1.8,1.1,2.9,1.1s1.7-.2,2.4-.7c.6-.4,1.1-1,1.3-1.8h2.4c-.4,1.3-1.1,2.3-2.1,3.1-1.1.8-2.4,1.2-3.9,1.2s-2.4-.3-3.3-.8c-1-.6-1.8-1.4-2.3-2.4-.6-1-.8-2.2-.8-3.6s.3-2.6.8-3.6,1.3-1.8,2.3-2.4c1-.6,2.1-.8,3.4-.8s2.4.3,3.3.8,1.7,1.3,2.2,2.2c.5,1,.8,2,.8,3.2s0,.9,0,1.3ZM208.3,18.8c-.4-.6-.9-1.1-1.5-1.4-.6-.3-1.3-.5-2.1-.5-1.1,0-2,.4-2.8,1.1-.8.7-1.2,1.7-1.3,2.9h8.3c0-.8-.2-1.5-.6-2.1Z"/>
    <path class="cls-1" d="M217.8,15.8c.7-.4,1.6-.6,2.6-.6v2.3h-.6c-2.4,0-3.7,1.3-3.7,4v7.2h-2.2v-13.2h2.2v2.1c.4-.8.9-1.3,1.6-1.8Z"/>
    <path class="cls-1" d="M147.9,37.9v16.6h-2.2v-12.4l-5.5,12.4h-1.5l-5.5-12.4v12.4h-2.2v-16.6h2.4l6.1,13.7,6.1-13.7h2.3Z"/>
    <path class="cls-1" d="M151.6,44.4c.5-1,1.3-1.8,2.2-2.4,1-.6,2-.8,3.2-.8s2.2.2,3,.7c.8.5,1.5,1.1,1.9,1.9v-2.4h2.2v13.2h-2.2v-2.4c-.4.8-1.1,1.4-1.9,1.9-.9.5-1.9.8-3,.8s-2.2-.3-3.2-.9c-.9-.6-1.7-1.4-2.2-2.4s-.8-2.2-.8-3.6.3-2.5.8-3.5ZM161.3,45.3c-.4-.7-.9-1.3-1.6-1.7-.7-.4-1.4-.6-2.2-.6s-1.6.2-2.2.6-1.2.9-1.6,1.7c-.4.7-.6,1.6-.6,2.6s.2,1.9.6,2.6c.4.7.9,1.3,1.6,1.7.7.4,1.4.6,2.2.6s1.6-.2,2.2-.6c.7-.4,1.2-1,1.6-1.7.4-.7.6-1.6.6-2.6s-.2-1.9-.6-2.6Z"/>
    <path class="cls-1" d="M175.1,54.5l-5.2-5.8v5.8h-2.2v-17.8h2.2v10.4l5.1-5.8h3l-6.2,6.6,6.2,6.6h-3Z"/>
    <path class="cls-1" d="M192.1,48.8h-10.5c0,1.3.5,2.3,1.3,3,.8.7,1.8,1.1,2.9,1.1s1.7-.2,2.4-.7c.6-.4,1.1-1,1.3-1.8h2.4c-.4,1.3-1.1,2.3-2.1,3.1-1.1.8-2.4,1.2-3.9,1.2s-2.4-.3-3.3-.8c-1-.6-1.8-1.4-2.3-2.4-.6-1-.8-2.2-.8-3.6s.3-2.6.8-3.6c.5-1,1.3-1.8,2.3-2.4,1-.6,2.1-.8,3.4-.8s2.4.3,3.3.8,1.7,1.3,2.2,2.2c.5,1,.8,2,.8,3.2s0,.9,0,1.3ZM189.4,44.8c-.4-.6-.9-1.1-1.5-1.4-.6-.3-1.3-.5-2.1-.5-1.1,0-2,.4-2.8,1.1-.8.7-1.2,1.7-1.3,2.9h8.3c0-.8-.2-1.5-.6-2.1Z"/>
    <path class="cls-1" d="M198.9,41.8c.7-.4,1.6-.6,2.6-.6v2.3h-.6c-2.4,0-3.7,1.3-3.7,4v7.2h-2.2v-13.2h2.2v2.1c.4-.8.9-1.3,1.6-1.8Z"/>
    <path class="cls-1" d="M205.9,54.2c-.8-.3-1.4-.8-1.9-1.4-.5-.6-.7-1.3-.8-2.1h2.3c0,.7.4,1.2.9,1.6.6.4,1.3.6,2.2.6s1.5-.2,2-.6c.5-.4.7-.8.7-1.4s-.3-1-.8-1.3c-.5-.3-1.3-.6-2.4-.8-1-.3-1.8-.5-2.4-.8-.6-.3-1.1-.7-1.6-1.2-.4-.5-.7-1.2-.7-2.1s.2-1.3.6-1.8c.4-.6,1-1,1.7-1.3.7-.3,1.6-.5,2.5-.5,1.5,0,2.6.4,3.5,1.1.9.7,1.4,1.7,1.4,3h-2.2c0-.7-.3-1.2-.8-1.7s-1.2-.6-2-.6-1.4.2-1.9.5c-.5.3-.7.8-.7,1.3s.1.8.4,1.1c.3.3.6.5,1.1.7s1,.4,1.8.6c.9.3,1.7.5,2.3.8.6.2,1.1.6,1.5,1.1.4.5.6,1.1.7,1.9,0,.7-.2,1.4-.6,1.9-.4.6-1,1-1.7,1.4-.7.3-1.6.5-2.5.5s-1.9-.2-2.7-.5Z"/>
    <path class="cls-1" d="M140.8,76.8h-7.3l-1.3,3.7h-2.3l6-16.6h2.5l6,16.6h-2.3l-1.3-3.7ZM140.2,75l-3-8.4-3,8.4h6Z"/>
    <path class="cls-1" d="M149.3,62.8v17.8h-2.2v-17.8h2.2Z"/>
    <path class="cls-1" d="M155.2,62.8v17.8h-2.2v-17.8h2.2Z"/>
    <path class="cls-1" d="M159,64.8c-.3-.3-.4-.6-.4-1.1s.1-.8.4-1.1.6-.4,1.1-.4.7.1,1,.4c.3.3.4.6.4,1.1s-.1.8-.4,1.1c-.3.3-.6.4-1,.4s-.8-.1-1.1-.4ZM161.1,67.4v13.2h-2.2v-13.2h2.2Z"/>
    <path class="cls-1" d="M164.8,70.4c.5-1,1.3-1.8,2.2-2.4,1-.6,2-.8,3.2-.8s2.2.2,3,.7c.8.5,1.5,1.1,1.9,1.9v-2.4h2.2v13.2h-2.2v-2.4c-.4.8-1.1,1.4-1.9,1.9-.9.5-1.9.8-3,.8s-2.2-.3-3.2-.9c-.9-.6-1.7-1.4-2.2-2.4s-.8-2.2-.8-3.6.3-2.5.8-3.5ZM174.5,71.3c-.4-.7-.9-1.3-1.6-1.7-.7-.4-1.4-.6-2.2-.6s-1.6.2-2.2.6-1.2.9-1.6,1.7c-.4.7-.6,1.6-.6,2.6s.2,1.9.6,2.6c.4.7.9,1.3,1.6,1.7.7.4,1.4.6,2.2.6s1.6-.2,2.2-.6c.7-.4,1.2-1,1.6-1.7.4-.7.6-1.6.6-2.6s-.2-1.9-.6-2.6Z"/>
    <path class="cls-1" d="M191.3,68.6c1,1,1.5,2.4,1.5,4.2v7.8h-2.2v-7.4c0-1.3-.3-2.3-1-3-.7-.7-1.6-1-2.7-1s-2.1.4-2.7,1.1c-.7.7-1,1.8-1,3.1v7.3h-2.2v-13.2h2.2v1.9c.4-.7,1-1.2,1.8-1.6s1.6-.6,2.5-.6c1.6,0,2.9.5,3.9,1.5Z"/>
    <path class="cls-1" d="M196.4,70.4c.5-1,1.3-1.8,2.3-2.4,1-.6,2.1-.8,3.3-.8s2.9.4,4,1.2c1,.8,1.7,1.9,2.1,3.3h-2.4c-.2-.8-.7-1.4-1.3-1.9-.6-.5-1.5-.7-2.4-.7s-2.3.4-3,1.3c-.8.9-1.2,2.1-1.2,3.6s.4,2.8,1.2,3.7c.8.9,1.8,1.3,3,1.3s1.8-.2,2.4-.7c.6-.4,1.1-1.1,1.3-1.9h2.4c-.4,1.3-1.1,2.4-2.1,3.2-1.1.8-2.4,1.2-4,1.2s-2.4-.3-3.3-.8c-1-.6-1.7-1.4-2.3-2.4-.5-1-.8-2.2-.8-3.6s.3-2.5.8-3.6Z"/>
    <path class="cls-1" d="M222.9,74.8h-10.5c0,1.3.5,2.3,1.3,3,.8.7,1.8,1.1,2.9,1.1s1.7-.2,2.4-.7c.6-.4,1.1-1,1.3-1.8h2.4c-.4,1.3-1.1,2.3-2.1,3.1-1.1.8-2.4,1.2-3.9,1.2s-2.4-.3-3.3-.8c-1-.6-1.8-1.4-2.3-2.4-.6-1-.8-2.2-.8-3.6s.3-2.6.8-3.6c.5-1,1.3-1.8,2.3-2.4,1-.6,2.1-.8,3.4-.8s2.4.3,3.3.8,1.7,1.3,2.2,2.2c.5,1,.8,2,.8,3.2s0,.9,0,1.3ZM220.1,70.8c-.4-.6-.9-1.1-1.5-1.4-.6-.3-1.3-.5-2.1-.5-1.1,0-2,.4-2.8,1.1-.8.7-1.2,1.7-1.3,2.9h8.3c0-.8-.2-1.5-.6-2.1Z"/>
  </g>
  <line class="cls-2" x1="121.1" y1="10.8" x2="121.1" y2="81.5"/>
</svg>